# xmcd CD database file
#
# Track frame offsets:
#	150
#	12809
#	24346
#	36844
#	50622
#	63344
#	76067
#	88426
#	100269
#	112154
#	123167
#	134682
#	146068
#	156400
#	168078
#	182316
#
# Disc length: 2567 seconds
#
# Revision: 0
# Processed by: cddbd v1.4PL0 Copyright (c) Steve Scherf et al.
# Submitted via: CDex 1.50
#
DISCID=d30a0510
DTITLE=Ray Charles - Blues Before Sunrise
DYEAR=2002
DGENRE=Blues
TTITLE0=Blues Before Sunrise
TTITLE1=She's On The Ball
TTITLE2=Rockin' Chair Bues
TTITLE3=This Love On Mine
TTITLE4=Can I Ask For More?
TTITLE5=You'll Never Miss The Water
TTITLE6=Honey, Honey
TTITLE7=If I Give You My Love
TTITLE8=Can't You See Darling
TTITLE9=A Sentimental Blues
TTITLE10=Let's Have A Ball
TTITLE11=Confession Blues
TTITLE12=Goin' Slow Down
TTITLE13=How Long
TTITLE14=Walkin' And Talkin'
TTITLE15=Ain't That Fine
EXTD=YEAR: 2002
EXTT0=
EXTT1=
EXTT2=
EXTT3=
EXTT4=
EXTT5=
EXTT6=
EXTT7=
EXTT8=
EXTT9=
EXTT10=
EXTT11=
EXTT12=
EXTT13=
EXTT14=
EXTT15=
PLAYORDER=
